Coordinates
version=1
nRows=17
nColumns=24
inDegrees=yes

Units are S.I. units (second, meters, Newtons, ...)
Angles are in degrees.

endheader
time	pelvis_tilt	pelvis_list	pelvis_rotation	pelvis_tx	pelvis_ty	pelvis_tz	hip_flexion_r	hip_adduction_r	hip_rotation_r	knee_angle_r	ankle_angle_r	subtalar_angle_r	mtp_angle_r	hip_flexion_l	hip_adduction_l	hip_rotation_l	knee_angle_l	ankle_angle_l	subtalar_angle_l	mtp_angle_l	lumbar_extension	lumbar_bending	lumbar_rotation
      7.36000000	      1.95403672	      5.29469193	      9.18474894	     -0.78104742	      0.87790118	      0.20396339	     19.45472443	     -5.25105634	    -14.35255765	     -4.28700499	      9.32251164	      7.55487669	      0.00000000	    -18.49366893	      8.37682989	     16.68939974	     -6.91695324	     14.55909496	    -11.67035608	      0.00000000	    -23.52646150	     -5.76682541	    -21.94276055
      7.37000000	      2.13353857	      5.26128864	      9.11166071	     -0.76863154	      0.87729838	      0.20446639	     19.25329334	     -4.93920788	    -13.86324852	     -3.62293112	      9.43813399	      8.53643014	      0.00000000	    -19.17567327	      8.18641792	     16.72537722	     -7.57421225	     14.18903226	    -11.33853379	      0.00000000	    -23.65123953	     -5.72183115	    -21.94074274
      7.38000000	      2.34288832	      5.23285791	      8.91085321	     -0.75592487	      0.87680473	      0.20511216	     19.09821567	     -4.60780794	    -12.95833147	     -3.52892297	      9.64077764	      9.22671189	      0.00000000	    -19.81861718	      8.04279164	     16.55897467	     -8.36858886	     13.69906466	    -10.84489735	      0.00000000	    -23.75899141	     -5.70829510	    -21.84440589
      7.39000000	      2.60316757	      5.20335057	      8.59092360	     -0.74288115	      0.87643306	      0.20586892	     18.93323126	     -4.24704561	    -11.73926633	     -3.92254232	      9.85323413	      9.63909051	      0.00000000	    -20.43008415	      7.93891704	     16.09400904	     -9.32397070	     13.10878229	    -10.08464411	      0.00000000	    -23.86150597	     -5.69371067	    -21.67473371
      7.40000000	      2.85972053	      5.20730911	      8.20759841	     -0.72953148	      0.87611379	      0.20667292	     18.78032696	     -3.91191796	    -10.32214646	     -4.70833251	     10.00919378	      9.78647033	      0.00000000	    -20.91816349	      7.90823244	     15.35419417	    -10.50934566	     12.39680640	     -9.04924874	      0.00000000	    -23.91261309	     -5.72266978	    -21.50458518
      7.41000000	      3.08942713	      5.24511963	      7.85127652	     -0.71578670	      0.87584814	      0.20748313	     18.59641584	     -3.61391908	     -8.83055501	     -5.73530155	     10.03092920	      9.55782534	      0.00000000	    -21.22771735	      7.90809003	     14.23554470	    -11.96942445	     11.55044053	     -7.62713200	      0.00000000	    -23.84990728	     -5.78086461	    -21.41316902
      7.42000000	      3.29785405	      5.32717613	      7.51321766	     -0.70189502	      0.87565640	      0.20825057	     18.42207858	     -3.37686642	     -7.46280489	     -6.99048132	      9.82090982	      9.11699152	      0.00000000	    -21.32474466	      7.95450092	     12.93393623	    -13.75081677	     10.50822324	     -6.02588247	      0.00000000	    -23.75414436	     -5.86240175	    -21.38975304
      7.43000000	      3.47009981	      5.45219041	      7.26924182	     -0.68777250	      0.87556262	      0.20895266	     18.20673944	     -3.21034900	     -6.22371042	     -8.31464305	      9.39615681	      8.32832779	      0.00000000	    -21.16117897	      7.99481173	     11.40777728	    -15.89753257	      9.22071773	     -4.21515487	      0.00000000	    -23.57396198	     -5.96963599	    -21.46706896
      7.44000000	      3.59814117	      5.59046244	      7.12388612	     -0.67353422	      0.87557598	      0.20957845	     17.98499292	     -3.08684538	     -5.10416948	     -9.68427435	      8.75396934	      7.15765252	      0.00000000	    -20.69857975	      7.98798283	      9.73316663	    -18.42546747	      7.63350553	     -2.40760872	      0.00000000	    -23.32662987	     -6.07034863	    -21.63952853
      7.45000000	      3.68306954	      5.73866010	      7.04321545	     -0.65941386	      0.87570596	      0.21014719	     17.79459166	     -2.99216377	     -4.01029816	    -11.08891368	      7.89488211	      5.59131446	      0.00000000	    -19.89863825	      7.94152114	      8.01660179	    -21.36799798	      5.72109811	     -0.76643601	      0.00000000	    -23.06700996	     -6.15758587	    -21.85730971
      7.46000000	      3.73789339	      5.89236489	      7.12112924	     -0.64548418	      0.87597437	      0.21062628	     17.62466319	     -2.93651547	     -3.10809820	    -12.52891606	      7.03345332	      3.73303314	      0.00000000	    -18.75029157	      7.79936067	      6.37402182	    -24.75446066	      3.52012149	      0.67695867	      0.00000000	    -22.83577700	     -6.24093519	    -22.08756900
      7.47000000	      3.75653302	      6.01055458	      7.28552297	     -0.63193244	      0.87631640	      0.21100348	     17.50680148	     -2.85306039	     -2.09974830	    -14.00513500	      6.21226533	      1.68314945	      0.00000000	    -17.24326472	      7.57049921	      4.85523658	    -28.54902352	      1.01372864	      1.63557701	      0.00000000	    -22.65521945	     -6.24850771	    -22.43820082
      7.48000000	      3.70534250	      6.07334903	      7.43914734	     -0.61861067	      0.87659185	      0.21149006	     17.49532391	     -2.67675649	     -1.08767012	    -15.52057381	      5.58626006	     -0.48306878	      0.00000000	    -15.39399529	      7.25355764	      3.35656765	    -32.63961799	     -1.81315882	      2.02370143	      0.00000000	    -22.42859585	     -6.25946810	    -22.53573352
      7.49000000	      3.62051181	      6.03476124	      7.68366574	     -0.60574083	      0.87680612	      0.21192677	     17.53223997	     -2.39291111	     -0.11243188	    -17.05677221	      5.25424272	     -2.45188464	      0.00000000	    -13.22657014	      6.77512983	      2.00781931	    -37.02741947	     -4.76504800	      1.93226301	      0.00000000	    -22.26461655	     -6.14623405	    -22.69763784
      7.50000000	      3.52843395	      5.91075921	      8.00507335	     -0.59331445	      0.87691670	      0.21231239	     17.55491859	     -2.00668799	      0.75270049	    -18.53858917	      5.27491220	     -4.28984022	      0.00000000	    -10.83629228	      6.18049030	      0.86407640	    -41.57271023	     -7.80241668	      1.18951324	      0.00000000	    -22.18800588	     -5.94512826	    -22.78592586
      7.51000000	      3.33796065	      5.64181311	      8.28617527	     -0.58115242	      0.87680410	      0.21278324	     17.64525945	     -1.44800252	      1.56004001	    -19.90298188	      5.56876172	     -5.79655783	      0.00000000	     -8.18707540	      5.43756366	     -0.22202264	    -46.13400588	    -10.81720412	      0.00358988	      0.00000000	    -22.01082678	     -5.62958087	    -22.75335683
      7.52000000	      3.17333601	      5.30638100	      8.58874179	     -0.56937190	      0.87665746	      0.21321132	     17.62146071	     -0.81768128	      2.21700940	    -21.07307089	      6.14751169	     -7.04094246	      0.00000000	     -5.47615328	      4.64047474	     -1.09938901	    -50.57241439	    -13.61730435	     -1.64144968	      0.00000000	    -21.94440789	     -5.24712575	    -22.66281921
